# xmcd
#
# Track frame offsets:
#	150
#	8546
#	12080
#	29294
#	39207
#	52871
#	62729
#	72977
#	82865
#	91954
#	106930
#	116794
#	124578
#	141185
#	162524
#
# Disc length: 2425 seconds
#
# Revision: 1
# Processed by: cddbd v1.5.2PL0 Copyright (c) Steve Scherf et al.
# Submitted via: audiograbber 1.83.01
#
DISCID=b209770f
DTITLE=Blimey! - Are You With Me?
DYEAR=2008
DGENRE=indie
TTITLE0=Telescope Dancer Pt. I
TTITLE1=J.L.E.
TTITLE2=Speedball Gibberish
TTITLE3=Most Definitely Out Of Line
TTITLE4=Livin' Without You
TTITLE5=Change Myself
TTITLE6=Dance Emma Dance
TTITLE7=Less Summer Than Some
TTITLE8=Any Fruit The String Yields
TTITLE9=I've Tried
TTITLE10=From Summer To Fall
TTITLE11=Telescope Dancer Pt. II
TTITLE12=Just Like A Woman
TTITLE13=The More Reason
TTITLE14=(bonus track)
EXTD=
EXTT0=
EXTT1=
EXTT2=
EXTT3=
EXTT4=
EXTT5=
EXTT6=
EXTT7=
EXTT8=
EXTT9=
EXTT10=
EXTT11=
EXTT12=
EXTT13=
EXTT14=
PLAYORDER=
